HIERARCHY
ROOT Hips
{
	OFFSET 0.000000 0.000000 0.000000
	CHANNELS 6 Xposition Yposition Zposition Zrotation Yrotation Xrotation
	JOINT LHipJoint
	{
		OFFSET 0.000000 0.000000 0.000000
		CHANNELS 3 Zrotation Yrotation Xrotation
		JOINT LeftUpLeg
		{
			OFFSET 1.363060 -1.794630 0.839290
			CHANNELS 3 Zrotation Yrotation Xrotation
			JOINT LeftLeg
			{
				OFFSET 2.448110 -6.726130 0.000000
				CHANNELS 3 Zrotation Yrotation Xrotation
				JOINT LeftFoot
				{
					OFFSET 2.562200 -7.039590 0.000000
					CHANNELS 3 Zrotation Yrotation Xrotation
					JOINT LeftToeBase
					{
						OFFSET 0.157640 -0.433110 2.322550
						CHANNELS 3 Zrotation Yrotation Xrotation
						End Site
						{
							OFFSET 0.000000 0.000000 0.000000
						}
					}
				}
			}
		}
	}
	JOINT RHipJoint
	{
		OFFSET 0.000000 0.000000 0.000000
		CHANNELS 3 Zrotation Yrotation Xrotation
		JOINT RightUpLeg
		{
			OFFSET -1.305520 -1.794630 0.839290
			CHANNELS 3 Zrotation Yrotation Xrotation
			JOINT RightLeg
			{
				OFFSET -2.542530 -6.985550 0.000000
				CHANNELS 3 Zrotation Yrotation Xrotation
				JOINT RightFoot
				{
					OFFSET -2.568260 -7.056230 0.000000
					CHANNELS 3 Zrotation Yrotation Xrotation
					JOINT RightToeBase
					{
						OFFSET -0.164730 -0.452590 2.363150
						CHANNELS 3 Zrotation Yrotation Xrotation
						End Site
						{
							OFFSET 0.000000 0.000000 0.000000
						}
					}
				}
			}
		}
	}
	JOINT LowerBack
	{
		OFFSET 0.000000 0.000000 0.000000
		CHANNELS 3 Zrotation Yrotation Xrotation
		JOINT Spine
		{
			OFFSET 0.028270 2.035590 -0.193380
			CHANNELS 3 Zrotation Yrotation Xrotation
			JOINT Spine1
			{
				OFFSET 0.056720 2.048850 -0.042750
				CHANNELS 3 Zrotation Yrotation Xrotation
				JOINT Neck
				{
					OFFSET 0.000000 0.000000 0.000000
					CHANNELS 3 Zrotation Yrotation Xrotation
					JOINT Neck1
					{
						OFFSET -0.054170 1.746240 0.172020
						CHANNELS 3 Zrotation Yrotation Xrotation
						JOINT Head
						{
							OFFSET 0.104070 1.761360 -0.123970
							CHANNELS 3 Zrotation Yrotation Xrotation
							End Site
							{
								OFFSET 0.000000 0.000000 0.000000
							}
						}
					}
				}
				JOINT LeftShoulder
				{
					OFFSET 0.000000 0.000000 0.000000
					CHANNELS 3 Zrotation Yrotation Xrotation
					JOINT LeftArm
					{
						OFFSET 3.362410 1.200890 -0.311210
						CHANNELS 3 Zrotation Yrotation Xrotation
						JOINT LeftForeArm
						{
							OFFSET 4.983000 -0.000000 -0.000000
							CHANNELS 3 Zrotation Yrotation Xrotation
							JOINT LeftHand
							{
								OFFSET 3.483560 -0.000000 -0.000000
								CHANNELS 3 Zrotation Yrotation Xrotation
								JOINT LeftFingerBase
								{
									OFFSET 0.000000 0.000000 0.000000
									CHANNELS 3 Zrotation Yrotation Xrotation
									JOINT LeftHandIndex1
									{
										OFFSET 0.715260 -0.000000 -0.000000
										CHANNELS 3 Zrotation Yrotation Xrotation
										End Site
										{
											OFFSET 0.000000 0.000000 0.000000
										}
									}
								}
								JOINT LThumb
								{
									OFFSET 0.000000 0.000000 0.000000
									CHANNELS 3 Zrotation Yrotation Xrotation
									End Site
									{
										OFFSET 0.000000 0.000000 0.000000
									}
								}
							}
						}
					}
				}
				JOINT RightShoulder
				{
					OFFSET 0.000000 0.000000 0.000000
					CHANNELS 3 Zrotation Yrotation Xrotation
					JOINT RightArm
					{
						OFFSET -3.136600 1.374050 -0.404650
						CHANNELS 3 Zrotation Yrotation Xrotation
						JOINT RightForeArm
						{
							OFFSET -5.241900 -0.000000 -0.000000
							CHANNELS 3 Zrotation Yrotation Xrotation
							JOINT RightHand
							{
								OFFSET -3.444170 -0.000000 -0.000000
								CHANNELS 3 Zrotation Yrotation Xrotation
								JOINT RightFingerBase
								{
									OFFSET 0.000000 0.000000 0.000000
									CHANNELS 3 Zrotation Yrotation Xrotation
									JOINT RightHandIndex1
									{
										OFFSET -0.622530 -0.000000 -0.000000
										CHANNELS 3 Zrotation Yrotation Xrotation
										End Site
										{
											OFFSET 0.000000 0.000000 0.000000
										}
									}
								}
								JOINT RThumb
								{
									OFFSET 0.000000 0.000000 0.000000
									CHANNELS 3 Zrotation Yrotation Xrotation
									End Site
									{
										OFFSET 0.000000 0.000000 0.000000
									}
								}
							}
						}
					}
				}
			}
		}
	}
}
MOTION
Frames: 13
Frame Time: 0.008333
0.001305 0.000050 0.115992 0.028774 0.145691 -0.059334 0.023019 0.022131 0.046088 -0.151532 -0.059401 0.042604 0.133915 0.204802 0.664859 0.039465 -0.456942 -0.363656 -0.010589 0.041195 0.117734 -0.046311 0.028046 -0.073129 0.029061 0.111947 -0.511175 -0.340836 -0.410858 1.439991 0.010700 -0.455681 1.033865 0.037480 -0.161345 0.458119 -0.108815 -0.040721 0.136316 -0.012039 -0.040533 -0.003432 0.016807 -0.020629 -0.054699 -0.064990 -0.058879 -0.011998 0.086042 -0.083890 -0.072007 0.050763 -0.041846 -0.026566 -0.003509 -0.022373 -0.009268 0.039229 -0.243013 -0.300249 0.024320 -0.026847 -0.010204 0.008822 0.000013 0.149345 -0.065216 0.158886 0.059866 0.000000 0.000000 0.000000 -0.047605 0.160230 0.006641 -0.005654 0.008655 0.025895 0.033562 -0.597195 -0.184423 -0.228523 0.121212 -0.146409 0.011601 -0.000977 -0.129793 0.199807 -0.090654 -0.072034 -0.000000 0.000000 0.000000 0.260269 -0.041799 -0.104869
0.017406 -0.057993 -0.414218 -0.081205 0.110475 -0.256471 -0.190603 -0.131212 -0.006337 -0.204385 -0.167951 0.142952 0.079520 0.350258 1.138241 0.065102 -0.414986 -0.044613 0.027814 0.048701 0.501774 0.119190 0.104935 -0.041031 -0.551520 -0.321675 -0.775499 -0.591320 -0.650362 1.217423 0.030843 -1.584421 1.094794 -0.050510 -0.508108 1.876194 -0.054007 0.021094 0.406811 0.094023 0.045779 -0.101889 -0.080312 -0.051505 -0.381820 -0.259277 -0.296217 0.447725 0.133883 -0.226503 -0.273376 -0.193386 -0.106616 -0.078590 -0.167123 -0.064614 -0.019239 -0.513804 -0.348099 -0.323704 0.042020 -0.242807 -0.046891 -0.042315 -0.077428 0.168670 -0.052909 -0.944720 -0.261541 -0.042792 0.000000 0.000000 -0.866936 -0.437739 -0.656946 -0.090335 -0.068933 0.006397 -0.053370 -0.580101 -0.048723 -0.374057 0.161849 -0.153365 0.019274 -0.004538 -0.196473 -1.150454 -0.491886 0.259232 0.017562 0.000000 0.000000 -0.013361 -0.079446 -0.674606
0.146622 0.085816 0.499851 0.097729 0.331183 -0.058219 -0.124743 -0.135860 0.102012 0.146895 -0.038167 0.031022 -0.017057 0.537264 1.758792 0.083951 -0.451050 0.367636 0.063404 -0.001165 1.030819 0.308548 0.206407 0.168343 -0.581452 -0.623443 -0.496209 -0.493208 -0.434374 1.194081 0.110488 -3.380042 -0.646136 -0.251690 -1.302236 4.724753 -0.018151 -0.073915 0.643516 0.136402 0.244344 0.149054 0.088776 0.060990 0.065396 0.099688 -0.172064 0.594584 0.178810 -0.058111 -0.184401 -0.252745 -0.105427 0.059588 -0.172652 -0.058731 -0.011893 -0.271999 -0.238121 -0.943021 0.076552 -0.196440 -0.025252 -0.045748 -0.090871 0.724469 0.263125 -1.142570 -0.209641 -0.025985 0.000000 0.000000 -0.274080 0.759834 0.362882 0.081060 0.013386 0.033056 0.440253 -0.457166 0.312276 -0.238209 0.406875 -0.196292 0.041251 0.023824 0.003048 -0.009750 -0.047860 1.866765 0.050644 0.000000 0.000000 1.080701 0.721228 0.513473
0.206295 0.097516 0.923216 0.031909 0.181797 -0.037303 -0.216034 -0.181845 0.177402 0.384517 0.004790 -0.299515 -0.161588 0.526278 1.883059 0.056994 -0.685429 0.487596 0.045062 -0.168098 1.233734 0.374095 0.273789 0.362237 -0.839213 -1.035998 -0.499916 -0.499289 -0.412774 1.002513 0.144577 -5.105542 -2.478482 -0.394930 -1.983835 7.371045 0.031279 -0.127614 0.923032 0.071297 0.343447 0.103191 0.094425 0.064837 0.156823 0.080253 -0.294334 0.386952 0.049503 -0.129659 -0.409688 -0.389295 -0.148701 0.079425 -0.308771 -0.120389 -0.017107 -0.303585 -0.204157 -1.505568 0.151358 -0.070787 0.020786 -0.035656 -0.088579 1.301852 0.574073 -1.356998 -0.166286 -0.022208 0.000000 0.000000 0.135514 1.653803 1.125027 0.207159 0.053034 0.044596 0.689405 -0.399745 0.616627 -0.176873 0.604061 -0.233761 0.067269 0.053839 0.209562 1.254952 0.379264 3.374666 0.076265 0.000000 0.000000 2.254052 1.641768 2.046301
0.217691 0.169843 1.096599 -0.251443 -0.447663 -0.065865 -0.388026 -0.144834 0.244700 0.276076 -0.187853 -1.117768 -0.338663 0.251306 1.636541 0.006287 -0.923506 0.576156 0.003692 -0.193882 1.726390 0.508368 0.360223 0.519455 -0.715436 -1.314714 -0.518967 -0.561458 -0.545443 1.428077 0.270718 -4.858222 -3.936224 -0.333301 -2.372943 10.177710 0.488893 -0.116132 0.984206 -0.207646 0.199828 -0.397696 -0.170886 -0.159478 -0.329460 -0.452696 -0.604141 -0.588019 -0.542097 -0.541698 -1.001650 -0.653451 -0.306734 -0.308375 -0.854300 -0.534995 -0.112642 -2.246711 -0.786198 -3.824525 -0.187675 -0.573204 -0.061142 -0.042783 -0.161836 0.505556 0.148329 -2.071744 -0.342436 -0.110681 0.000000 0.000000 -0.967478 0.436915 -0.032226 0.112693 -0.088564 -0.016821 -0.128519 -0.725926 0.406183 -0.807028 0.236725 -0.720745 0.046159 0.025634 -0.109232 0.166931 -0.370853 2.448792 0.039042 0.000000 0.000000 0.322623 0.745886 0.967475
0.252327 0.371643 1.747427 -0.492196 -0.900938 0.093592 -0.409067 0.016561 0.379713 0.389136 -0.181792 -1.662039 -0.491268 0.013026 1.715410 -0.057871 -1.217571 0.644919 -0.052312 -0.238853 1.903484 0.390600 0.347533 0.388882 -0.895685 -1.785948 -1.006828 -0.577137 -0.486963 2.124861 0.380068 -4.078149 -5.356200 -0.222923 -2.643897 12.815125 0.930813 -0.158138 0.659255 -0.512510 0.206466 -0.311175 -0.072942 -0.160192 -0.047872 -0.205614 -0.235444 -0.556287 -0.532343 -0.076022 -0.280668 -0.226264 -0.183686 -0.102810 -0.677590 -0.416388 -0.088003 -1.537049 -0.404303 -3.841652 -0.017155 -0.344317 0.058681 0.011412 -0.120717 1.039592 0.464747 -1.714966 -0.285352 -0.134197 0.000000 0.000000 -0.592473 0.895814 0.372196 0.274456 -0.062444 -0.021302 -0.080952 -0.664128 0.682819 -0.883066 0.430399 -0.869914 0.069215 0.044219 0.015985 1.958407 -0.079021 3.362385 0.053874 0.000000 0.000000 0.587228 1.077451 1.909744
0.215704 0.520049 2.049850 -0.702984 -1.200445 0.204860 -0.508436 0.039520 0.422602 0.512948 -0.075567 -1.576073 -0.587324 -0.321243 1.622758 -0.166356 -1.573337 0.824604 -0.090104 -0.157225 2.207453 0.356641 0.366282 0.308934 -0.626841 -1.955907 -1.111983 -0.589271 -0.525507 2.988929 0.467648 -3.497568 -4.816986 0.004467 -2.395469 13.848117 1.060010 0.013427 0.895646 -0.608264 0.323280 -0.181337 0.037048 -0.057768 0.133933 -0.274573 -0.120131 -0.190888 -0.451693 0.096806 -0.002067 0.096896 -0.123947 0.038804 -0.569948 -0.282144 -0.064655 -0.955447 -0.070793 -2.860556 0.318173 -0.135522 0.162418 0.031759 -0.103855 1.466274 0.714738 -1.678089 -0.310945 -0.163536 0.000000 0.000000 -0.457451 1.106543 0.616586 0.432258 -0.070231 -0.037820 -0.147575 -0.594060 0.904442 -1.036016 0.614972 -0.906479 0.100517 0.060963 0.121776 2.765299 0.041150 4.429292 0.079521 0.000000 0.000000 1.392410 1.717976 3.318872
0.210022 0.736367 2.589513 -0.840523 -1.412954 0.338688 -0.603236 0.063811 0.473466 0.636403 0.060542 -1.390602 -0.689015 -0.632793 1.606749 -0.276204 -1.890169 1.044838 -0.124615 -0.087503 2.474706 0.293060 0.371793 0.225724 -0.312936 -2.032520 -1.020886 -0.603937 -0.602313 3.366441 0.385069 -3.516417 -4.700281 0.170353 -2.212469 14.410336 1.065764 0.179538 1.138754 -0.654898 0.490459 0.042279 0.208641 0.083427 0.393691 -0.254261 0.026420 0.144639 -0.366541 0.208802 0.138587 0.378886 -0.081670 0.180224 -0.469514 -0.169347 -0.047322 -0.671707 0.126021 -2.228791 0.555864 -0.041564 0.230900 0.039758 -0.104406 1.769741 0.923384 -1.568962 -0.297264 -0.176006 0.000000 0.000000 0.021545 1.785353 1.304797 0.655378 -0.033061 -0.038780 -0.005390 -0.474161 1.186460 -1.174497 0.807416 -0.965673 0.128390 0.074176 0.180097 3.185242 0.053113 5.260015 0.101319 0.000000 0.000000 1.224879 1.741943 3.726588
0.102966 0.790106 2.631696 -0.833528 -1.523802 0.500542 -0.656596 0.009412 0.491636 0.757996 0.194886 -1.169058 -0.767669 -0.928998 1.613183 -0.382902 -2.174624 1.339442 -0.148466 -0.116237 2.602265 0.147076 0.349844 0.166960 -0.014413 -2.102096 -0.954916 -0.616441 -0.771417 3.501686 0.220192 -5.102436 -5.636816 0.144694 -2.349410 12.475318 0.390836 0.051677 0.453064 -0.750262 0.486533 -0.133426 0.135249 0.147093 0.411342 -0.305831 0.073694 0.236472 -0.316810 0.287145 0.184731 0.658092 -0.041495 0.385365 -0.330811 -0.024734 -0.032053 -0.256199 0.331408 -1.426560 0.840128 0.143358 0.311918 0.048827 -0.096713 2.167939 1.141182 -1.375736 -0.265254 -0.187061 0.000000 0.000000 0.358351 2.341275 1.859720 0.844514 -0.006410 -0.045389 0.055109 -0.387523 1.443739 -1.333161 0.989331 -1.027639 0.156296 0.093870 0.286345 3.625991 0.148541 6.384611 0.133059 0.000000 0.000000 1.656749 2.137369 4.922320
0.027206 0.894238 2.899232 -0.869527 -1.797668 0.576595 -0.763816 -0.083391 0.481218 0.769333 0.230108 -1.150018 -0.851943 -1.327582 1.267535 -0.508948 -2.553857 1.538321 -0.188607 -0.094947 2.945897 0.073255 0.355953 0.261550 0.792215 -1.949951 -0.464060 -0.589757 -0.868061 4.177428 0.194609 -6.097585 -5.645368 0.194576 -2.123554 10.867149 -0.207632 0.045838 0.188293 -0.736205 0.502032 -0.412275 -0.022524 0.116187 0.150667 -0.752446 -0.224993 -0.075706 -0.427647 0.029764 -0.282940 0.654243 -0.157217 0.338583 -0.498702 -0.100901 -0.085566 -1.096208 0.058606 -1.446226 0.946097 0.039437 0.313368 0.033771 -0.135395 2.088221 1.065542 -1.538793 -0.343089 -0.222276 0.000000 0.000000 -0.004580 2.141458 1.697494 0.917489 -0.031693 -0.076234 -0.249602 -0.467488 1.483663 -1.722336 0.944676 -1.232076 0.167129 0.097288 0.224092 3.059809 -0.125506 6.829172 0.146542 0.000000 0.000000 1.294818 2.020047 5.666983
0.027509 1.010768 3.214500 -0.958489 -2.110332 0.712592 -0.835425 -0.101891 0.566066 0.967150 0.401227 -0.883938 -0.864032 -1.641514 1.067749 -0.600286 -2.835956 1.828837 -0.213991 0.006299 3.174535 -0.062390 0.334517 0.198160 0.766710 -2.226910 -0.802687 -0.706482 -1.145005 4.645307 0.127219 -6.401505 -5.280524 0.209278 -1.854328 10.048944 -0.511958 0.082377 -0.029526 -0.748922 0.501356 -0.620010 -0.127862 0.014289 -0.044863 -0.844340 -0.277775 0.105301 -0.383151 -0.000766 -0.419169 0.674033 -0.222094 0.411773 -0.542295 -0.005739 -0.113284 -1.341570 -0.009739 -1.230544 1.090775 -0.020755 0.318717 0.019838 -0.170161 2.087324 1.051345 -1.757970 -0.436117 -0.252138 0.000000 0.000000 -0.163170 2.196738 1.733773 0.997499 -0.040614 -0.103723 -0.474479 -0.510084 1.587340 -2.071737 0.915308 -1.428566 0.177985 0.099368 0.136793 2.534899 -0.378360 7.149839 0.158766 0.000000 0.000000 0.648988 1.705115 5.785834
0.073201 1.121636 3.696461 -0.959414 -2.345297 0.849177 -0.896818 -0.129027 0.647054 1.150693 0.541560 -0.679812 -0.882758 -1.991415 0.749228 -0.702596 -3.159487 2.064898 -0.246865 0.094638 3.353045 -0.218743 0.299999 0.096973 0.650969 -2.557459 -1.265122 -0.812270 -1.393835 5.391214 0.148087 -6.508386 -4.591217 0.218936 -1.551565 9.191545 -0.850844 0.133597 -0.199927 -0.721354 0.549316 -0.731703 -0.178320 -0.050208 -0.088324 -0.865047 -0.286290 0.359239 -0.321094 -0.018858 -0.548123 0.663444 -0.304291 0.442140 -0.637511 0.051229 -0.151407 -1.714448 -0.120616 -1.157009 1.211543 -0.118560 0.314458 0.004063 -0.212125 2.003806 0.993963 -2.073331 -0.570556 -0.292675 0.000000 0.000000 -0.561304 1.993230 1.540651 1.048358 -0.072268 -0.139095 -0.809517 -0.601915 1.619172 -2.495693 0.800882 -1.681322 0.181557 0.093254 -0.025335 1.522673 -0.850702 7.045147 0.160376 0.000000 0.000000 -0.571504 1.030779 5.249449
-0.166066 0.939163 3.546978 -1.017848 -2.352167 0.886589 -0.988104 -0.086040 0.816256 1.553195 0.829326 -0.467570 -0.841207 -2.218275 0.745755 -0.787804 -3.290541 2.647962 -0.219137 0.611570 3.900983 -0.221193 0.317696 -0.029984 0.280955 -2.792227 -1.609128 -0.837139 -1.473042 6.246575 0.173797 -7.250395 -3.845904 0.168865 -1.342088 10.090496 -0.741472 0.361820 0.181142 -0.563480 0.733625 -0.585889 -0.019722 -0.000222 -0.051163 -0.662324 -0.150886 0.543891 -0.246024 0.086239 -0.456705 0.694079 -0.356170 0.542576 -0.644453 0.233705 -0.142490 -1.269674 0.052377 -0.468239 1.500631 -0.011193 0.358507 0.007894 -0.205630 2.442238 1.245815 -1.810547 -0.526288 -0.301723 0.000000 0.000000 -0.410400 2.547315 2.017132 1.182755 -0.036642 -0.152276 -0.791716 -0.571295 1.785020 -2.707738 0.836900 -1.851153 0.197005 0.105109 -0.034520 1.838159 -0.812484 7.700075 0.184809 0.000000 0.000000 -0.744581 0.912810 5.993328
